<svg width="426" height="53" viewBox="0 0 426 53" fill="none" xmlns="http://www.w3.org/2000/svg">
<path d="M181.323 48.9999V12.4358H190.342V19.1393H191.805C192.048 17.9204 192.495 16.7829 193.145 15.7266C193.836 14.6297 194.872 13.7562 196.253 13.1062C197.635 12.4155 199.483 12.0702 201.799 12.0702H203.749V20.9675H201.067C197.614 20.9675 195.095 21.8409 193.511 23.5879C191.967 25.3348 191.195 27.9553 191.195 31.4492V48.9999H181.323Z" fill="#010001"/>
<path d="M159.782 49.914C154.013 49.914 149.605 48.1874 146.558 44.7341C143.552 41.2808 142.049 36.5885 142.049 30.6569C142.049 26.6755 142.719 23.2629 144.06 20.419C145.441 17.5751 147.432 15.3813 150.032 13.8375C152.673 12.2936 155.882 11.5217 159.661 11.5217C165.105 11.5217 169.269 13.1671 172.153 16.4579C175.078 19.7486 176.541 24.5832 176.541 30.9616V33.0336H151.677C151.881 36.1212 152.673 38.5588 154.054 40.3464C155.476 42.0934 157.385 42.9669 159.782 42.9669C161.692 42.9669 163.215 42.3981 164.353 41.2605C165.531 40.123 166.303 38.8026 166.669 37.2994H176.053C175.688 39.5339 174.875 41.6059 173.616 43.5153C172.356 45.4248 170.589 46.9686 168.314 48.1468C166.039 49.3249 163.195 49.914 159.782 49.914ZM151.677 26.8177H166.912C166.75 24.0551 166.059 21.9222 164.84 20.419C163.622 18.8752 161.875 18.1033 159.6 18.1033C157.365 18.1033 155.557 18.8345 154.176 20.2971C152.835 21.719 152.002 23.8926 151.677 26.8177Z" fill="#010001"/>
<path d="M107.6 48.9999V0.247803H117.472V26.4521H120.397L130.635 12.4358H141.117V12.8015L128.624 29.4991L142.579 48.6343V48.9999H131.062L120.397 33.7649H117.472V48.9999H107.6Z" fill="#010001"/>
<path d="M84.4566 49.914C78.4032 49.914 73.8733 48.1874 70.867 44.7341C67.9012 41.2402 66.4183 36.5681 66.4183 30.7179C66.4183 24.8676 67.9012 20.2159 70.867 16.7626C73.8733 13.2687 78.4032 11.5217 84.4566 11.5217C90.51 11.5217 95.0196 13.2687 97.9853 16.7626C100.992 20.2159 102.495 24.8676 102.495 30.7179C102.495 36.5681 100.992 41.2402 97.9853 44.7341C95.0196 48.1874 90.51 49.914 84.4566 49.914ZM84.4566 43.3325C87.138 43.3325 89.1084 42.2762 90.3678 40.1636C91.6273 38.051 92.257 34.8821 92.257 30.6569C92.257 26.4724 91.6273 23.3441 90.3678 21.2722C89.1084 19.1596 87.138 18.1033 84.4566 18.1033C81.7753 18.1033 79.8049 19.1596 78.5454 21.2722C77.286 23.3441 76.6563 26.4724 76.6563 30.6569C76.6563 34.8821 77.286 38.051 78.5454 40.1636C79.8049 42.2762 81.7753 43.3325 84.4566 43.3325Z" fill="#010001"/>
<path d="M43.4163 48.9999V12.4358H52.4354V19.1393H53.898C54.1417 17.9204 54.5886 16.7829 55.2387 15.7266C55.9293 14.6297 56.9653 13.7562 58.3466 13.1062C59.7279 12.4155 61.5764 12.0702 63.8922 12.0702H65.8422V20.9675H63.1609C59.7076 20.9675 57.1887 21.8409 55.6043 23.5879C54.0605 25.3348 53.2886 27.9553 53.2886 31.4492V48.9999H43.4163Z" fill="#010001"/>
<path d="M0.63147 48.9999V1.46655H19.2792C25.2107 1.46655 29.4968 2.54316 32.1375 4.69638C34.7783 6.8496 36.0986 9.75442 36.0986 13.4108C36.0986 15.7672 35.5299 17.6766 34.3923 19.1392C33.2548 20.6018 31.5281 21.6784 29.2124 22.369V23.8316C32.3 24.5223 34.6361 25.7411 36.2205 27.488C37.8456 29.235 38.6581 31.7741 38.6581 35.1055C38.6581 39.2901 37.2768 42.6621 34.5142 45.2216C31.7922 47.7405 27.2826 48.9999 20.9855 48.9999H0.63147ZM10.3819 41.6871H19.6448C22.7324 41.6871 24.9669 41.0777 26.3482 39.8589C27.7295 38.5994 28.4202 36.8931 28.4202 34.7399C28.4202 32.3429 27.6483 30.596 26.1045 29.499C24.5606 28.3615 22.4074 27.7927 19.6448 27.7927H10.3819V41.6871ZM10.3819 20.6018H18.5479C20.8636 20.6018 22.6918 20.1346 24.0325 19.2001C25.4138 18.2251 26.1045 16.7219 26.1045 14.6906C26.1045 10.7498 23.5856 8.77938 18.5479 8.77938H10.3819V20.6018Z" fill="#010001"/>
<path d="M391.744 48.9999V0.247803H401.616V16.8235H403.079C403.891 15.2797 405.008 14.0203 406.43 13.0452C407.893 12.0296 409.904 11.5217 412.463 11.5217C416.526 11.5217 419.573 12.8015 421.604 15.361C423.636 17.9205 424.651 21.394 424.651 25.7817V48.9999H414.779V27.4271C414.779 24.9083 414.332 22.9785 413.438 21.6378C412.545 20.2565 411.082 19.5658 409.051 19.5658C406.694 19.5658 404.866 20.5003 403.566 22.3691C402.266 24.1973 401.616 26.4927 401.616 29.2553V48.9999H391.744Z" fill="#010001"/>
<path d="M370.359 49.914C364.711 49.914 360.405 48.1874 357.439 44.7341C354.473 41.2808 352.991 36.6088 352.991 30.7179C352.991 24.502 354.555 19.7486 357.683 16.4579C360.852 13.1671 365.118 11.5217 370.48 11.5217C375.315 11.5217 379.114 12.8015 381.876 15.361C384.639 17.9204 386.284 21.4143 386.812 25.8427H377.062C376.778 23.4457 376.067 21.6175 374.929 20.3581C373.792 19.0986 372.329 18.4689 370.541 18.4689C368.185 18.4689 366.377 19.5252 365.118 21.6378C363.858 23.7504 363.229 26.7771 363.229 30.7179C363.229 34.6587 363.838 37.6854 365.057 39.798C366.316 41.9106 368.124 42.9669 370.48 42.9669C372.309 42.9669 373.792 42.3371 374.929 41.0777C376.067 39.7776 376.778 37.9494 377.062 35.5931H386.812C386.244 39.9402 384.558 43.4137 381.754 46.0139C378.992 48.614 375.193 49.914 370.359 49.914Z" fill="#010001"/>
<path d="M333.766 49.914C327.997 49.914 323.589 48.1874 320.542 44.7341C317.535 41.2808 316.032 36.5885 316.032 30.6569C316.032 26.6755 316.703 23.2629 318.043 20.419C319.425 17.5751 321.415 15.3813 324.015 13.8375C326.656 12.2936 329.866 11.5217 333.644 11.5217C339.088 11.5217 343.252 13.1671 346.137 16.4579C349.062 19.7486 350.524 24.5832 350.524 30.9616V33.0336H325.661C325.864 36.1212 326.656 38.5588 328.037 40.3464C329.459 42.0934 331.369 42.9669 333.766 42.9669C335.675 42.9669 337.199 42.3981 338.336 41.2605C339.515 40.123 340.286 38.8026 340.652 37.2994H350.037C349.671 39.5339 348.859 41.6059 347.599 43.5153C346.34 45.4248 344.573 46.9686 342.297 48.1468C340.022 49.3249 337.178 49.914 333.766 49.914ZM325.661 26.8177H340.896C340.733 24.0551 340.043 21.9222 338.824 20.419C337.605 18.8752 335.858 18.1033 333.583 18.1033C331.349 18.1033 329.541 18.8345 328.159 20.2971C326.819 21.719 325.986 23.8926 325.661 26.8177Z" fill="#010001"/>
<path d="M292.907 48.9999V9.51066H278.83V1.46655H317.223V9.51066H303.145V48.9999H292.907Z" fill="#010001"/>
<path d="M251.657 10.2028L245.65 0.999878H256.64L268.652 19.4055L230.392 19.4056C228.148 19.4056 226.231 21.0244 225.855 23.2369L225.334 26.3076H216L216.782 21.6967C217.909 15.0593 223.66 10.2028 230.392 10.2028L251.657 10.2028Z" fill="#54C41D"/>
<path d="M233.345 43.5633L239.351 52.766H228.362L216.35 34.3605H254.61C256.854 34.3605 258.771 32.7417 259.147 30.5292L259.668 27.4585L269.002 27.4585L268.22 32.0694C267.093 38.7068 261.342 43.5633 254.61 43.5633H233.345Z" fill="#54C41D"/>
</svg>
